<?xml version="1.0" standalone="no"?>
<!DOCTYPE svg PUBLIC "-//W3C//DTD SVG 20010904//EN"
 "http://www.w3.org/TR/2001/REC-SVG-20010904/DTD/svg10.dtd">
<svg version="1.0" xmlns="http://www.w3.org/2000/svg"
 width="828.000000pt" height="828.000000pt" viewBox="0 0 828.000000 828.000000"
 preserveAspectRatio="xMidYMid meet">
<metadata>
Created by potrace 1.11, written by Peter Selinger 2001-2013
</metadata>
<g transform="translate(0.000000,828.000000) scale(0.100000,-0.100000)"
fill="#000000" stroke="none">
<path d="M5276 6669 c-42 -33 -57 -73 -121 -314 -26 -95 -144 -531 -215 -790
-39 -143 -80 -294 -91 -335 -27 -104 -97 -359 -109 -395 -5 -16 -27 -100 -50
-185 -23 -85 -53 -193 -67 -240 -13 -47 -28 -96 -32 -110 l-6 -25 -861 -5
c-807 -5 -862 -6 -887 -23 l-28 -18 5 -245 c5 -216 8 -249 25 -282 32 -62 43
-67 155 -67 124 0 123 1 67 -146 -22 -57 -96 -261 -166 -454 -145 -403 -173
-478 -261 -709 -56 -144 -64 -174 -59 -208 6 -35 12 -42 51 -58 24 -11 63 -24
86 -31 24 -6 54 -17 68 -25 27 -16 201 -71 264 -84 42 -9 89 3 119 28 9 8 28
52 42 96 14 45 34 104 44 131 11 28 47 127 81 220 34 94 85 235 114 315 107
290 176 481 257 705 10 28 29 82 43 120 40 112 15 106 404 103 286 -3 336 -5
342 -18 39 -79 115 -272 220 -555 28 -77 64 -174 80 -215 16 -41 72 -192 125
-335 53 -143 102 -276 110 -295 39 -101 57 -152 80 -226 16 -53 36 -94 59
-120 l34 -39 74 27 c40 14 89 32 108 39 34 11 140 56 207 85 17 8 38 14 45 14
22 0 87 67 94 97 8 30 0 56 -90 288 -95 243 -94 242 -207 545 -56 151 -110
295 -119 320 -90 238 -132 361 -127 374 5 12 21 16 65 16 32 0 69 5 84 12 25
12 75 94 83 136 2 13 7 32 10 42 3 11 1 28 -4 39 -6 10 -11 41 -11 68 0 99 -1
118 -8 123 -4 3 -7 40 -7 83 l0 79 -42 19 c-23 10 -50 20 -60 22 -51 8 -53 23
-18 150 130 473 246 897 257 937 13 52 8 35 123 455 155 564 175 642 175 669
0 26 -99 129 -128 133 -47 7 -179 39 -190 46 -7 5 -21 6 -31 2 -10 -3 -53 3
-95 15 -41 11 -77 20 -79 20 -3 0 -16 -9 -31 -21z"/>
</g>
</svg>
